<?xml version="1.0" encoding="UTF-8" standalone="no"?><!DOCTYPE svg PUBLIC "-//W3C//DTD SVG 1.1//EN" "http://www.w3.org/Graphics/SVG/1.1/DTD/svg11.dtd"><svg width="100%" height="100%" viewBox="0 0 850 850" version="1.1" xmlns="http://www.w3.org/2000/svg" xmlns:xlink="http://www.w3.org/1999/xlink" xml:space="preserve" xmlns:serif="http://www.serif.com/" style="fill-rule:evenodd;clip-rule:evenodd;stroke-linejoin:round;stroke-miterlimit:1.41421;"><path id="seize-icon" d="M176.579,37.636c-12.603,0.017 -25.736,2.812 -40.436,11.298c-29.396,16.972 -35.779,39.829 -43.845,64.201c-8.067,24.372 -13.843,53.015 -18.538,85.596c-9.381,65.163 -13.879,145.668 -13.879,226.432c0,16.318 8.199,32.319 22.824,39.559c96.336,47.695 162.336,82.277 243.428,140.577c24.771,-11.077 55.586,-26.39 88.956,-48.829c-92.375,-67.1 -169.951,-112.256 -262.356,-156.712c0.93,-67.934 3.779,-136.486 11.282,-188.057c12.108,-83.222 12.892,-90.722 99.215,-57.188c55.145,21.422 124.315,56.911 191.288,95.579c66.976,38.668 131.971,81.302 178.464,117.883c23.248,18.29 42.274,33.661 53.163,47.854c7.836,10.214 2.573,21.537 -41.329,47.676c0,0 37.124,33.434 57.935,73.161c0,0 21.302,-15.681 50.451,-41.41c47.386,-41.826 51.689,-93.363 1.039,-140.122c-18.863,-17.414 -38.979,-38.522 -64.85,-58.876c-51.741,-40.708 -119.266,-84.887 -189.21,-125.269c-69.943,-40.382 -141.981,-76.708 -203.105,-101.163c-30.563,-12.228 -58.118,-21.65 -83.258,-26.849c-12.571,-2.603 -24.635,-5.361 -37.239,-5.341Zm51.88,196.093c-5.337,26.938 -9.154,71.092 -9.447,102.251c128.317,60.433 228.342,125.231 322.287,209.403c-28.393,18.521 -55.89,37.172 -86.764,54.997c-66.974,38.668 -136.329,73.69 -191.289,95.579c-59.664,23.763 -79.518,37.546 -93.777,-12.58c-8.873,-31.194 -13.712,-89.272 -16.574,-142.947c0,0 -35.813,-17.663 -93.014,-45.062c2.971,77.429 4.958,130.594 20.875,209.014c9.548,40.267 16.65,74.771 55.387,97.137c29.398,16.971 52.535,11.045 77.675,5.844c25.14,-5.201 52.696,-14.491 83.258,-26.719c61.126,-24.454 133.147,-60.911 203.09,-101.293c50.232,-29.001 99.236,-59.959 142.004,-90.125c19.694,-13.891 27.202,-42.057 12.581,-61.214c-90.752,-118.897 -278.17,-226.364 -426.307,-294.285l0.015,0Z" style="fill:url(#_Linear1);fill-rule:nonzero;"/><defs><linearGradient id="_Linear1" x1="0" y1="0" x2="1" y2="0" gradientUnits="userSpaceOnUse" gradientTransform="matrix(365.614,640.407,-640.407,365.614,190.315,163.649)"><stop offset="0" style="stop-color:#d73d84;stop-opacity:1"/><stop offset="1" style="stop-color:#6ecdd6;stop-opacity:1"/></linearGradient></defs></svg>